# xmcd CD database file
#
# Track frame offsets:
#	150
#	35822
#	66150
#	94624
#	125434
#	154046
#	178964
#	204512
#	234756
#	254836
#
# Disc length: 3667 seconds
#
# Revision: 0
# Processed by: cddbd v1.5.2PL0 Copyright (c) Steve Scherf et al.
# Submitted via: CDex 1.70beta2
#
DISCID=8b0e510a
DTITLE=Mitch Seidman, Fred Fried - THIS OVER THAT
DYEAR=1998
DGENRE=Jazz
TTITLE0=WISDOM OF NOTES
TTITLE1=NOBODY ELSE BUT BUT ME
TTITLE2=DREAM SEQUENCE
TTITLE3=NO WALLS
TTITLE4=REFLECTING ON JIMMY
TTITLE5=CAREFUL
TTITLE6=LATE AGAIN
TTITLE7=PANNONICA
TTITLE8=JORDU 
TTITLE9=THIS OVER THAT
EXTD=YEAR: 1998
EXTT0=
EXTT1=
EXTT2=
EXTT3=
EXTT4=
EXTT5=
EXTT6=
EXTT7=
EXTT8=
EXTT9=
PLAYORDER=
